<?xml version="1.0" encoding="utf-8"?>
<!-- Generator: Adobe Illustrator 23.0.2, SVG Export Plug-In . SVG Version: 6.00 Build 0)  -->
<svg version="1.1" id="Layer_1" xmlns="http://www.w3.org/2000/svg" xmlns:xlink="http://www.w3.org/1999/xlink" x="0px" y="0px"
	 viewBox="0 0 178 39" style="enable-background:new 0 0 178 39;" xml:space="preserve">
<style type="text/css">
	.st0{fill:none;stroke:#CCCCCC;stroke-width:1.57;stroke-miterlimit:10;}
	.st1{clip-path:url(#SVGID_2_);}
	.st2{fill:none;}
	.st3{clip-path:url(#SVGID_4_);}
	.st4{clip-path:url(#SVGID_6_);}
	.st5{fill:none;stroke:#000000;stroke-width:1.57;stroke-miterlimit:10;}
</style>
<title>All Colours</title>
<g id="_61">
	<circle cx="155.1" cy="19.5" r="14.9"/>
	<path class="st0" d="M167.3,31.7L142.9,7.2"/>
	<circle cx="23.3" cy="19.5" r="18.8"/>
	<circle cx="67.1" cy="19.5" r="14.9"/>
	<circle cx="111.2" cy="19.5" r="18.8"/>
	<g>
		<defs>
			<path id="SVGID_1_" d="M23.3,0.6C12.9,0.6,4.5,9.1,4.5,19.5s8.4,18.8,18.8,18.8s18.8-8.4,18.8-18.8c0.1-5-1.9-9.8-5.5-13.3
				C33.1,2.6,28.3,0.7,23.3,0.6z"/>
		</defs>
		<clipPath id="SVGID_2_">
			<use xlink:href="#SVGID_1_"  style="overflow:visible;"/>
		</clipPath>
		<g class="st1">
			<path class="st2" d="M23.3,0.6C12.9,0.6,4.5,9.1,4.5,19.5s8.4,18.8,18.8,18.8s18.8-8.4,18.8-18.8c0.1-5-1.9-9.8-5.5-13.3
				C33.1,2.6,28.3,0.7,23.3,0.6z"/>
		</g>
	</g>
	<g>
		<defs>
			<path id="SVGID_3_" d="M67.3,4.5C59,4.5,52.2,11.2,52.2,19.5s6.6,15.1,14.9,15.1s15.1-6.6,15.1-14.9c0-4-1.6-7.9-4.4-10.7
				C75,6.1,71.2,4.6,67.3,4.5z"/>
		</defs>
		<clipPath id="SVGID_4_">
			<use xlink:href="#SVGID_3_"  style="overflow:visible;"/>
		</clipPath>
		<g class="st3">
			<path class="st2" d="M67.3,4.5C59,4.5,52.2,11.2,52.2,19.5s6.6,15.1,14.9,15.1s15.1-6.6,15.1-14.9c0-4-1.6-7.9-4.4-10.7
				C75,6.1,71.2,4.6,67.3,4.5z"/>
		</g>
	</g>
	<g>
		<defs>
			<path id="SVGID_5_" d="M111.3,0.8c-10.4,0-18.8,8.4-18.8,18.8s8.4,18.8,18.8,18.8s18.8-8.4,18.8-18.8l0,0c0-5-2-9.7-5.5-13.3
				C121.1,2.7,116.3,0.7,111.3,0.8z"/>
		</defs>
		<clipPath id="SVGID_6_">
			<use xlink:href="#SVGID_5_"  style="overflow:visible;"/>
		</clipPath>
		<g class="st4">
			<path class="st2" d="M111.3,0.8c-10.4,0-18.8,8.4-18.8,18.8s8.4,18.8,18.8,18.8s18.8-8.4,18.8-18.8l0,0c0-5-2-9.7-5.5-13.3
				C121.1,2.7,116.3,0.7,111.3,0.8z"/>
		</g>
	</g>
	<path class="st0" d="M124.5,32.8L97.8,6.2"/>
	<path class="st5" d="M155.1,1.4c10,0,18,8.1,18,18.1s-8.1,18-18.1,18c-9.9,0-18-8.1-18-18.1C137,9.5,145.1,1.4,155.1,1.4
		C155.1,1.4,155.1,1.4,155.1,1.4z"/>
	<path class="st5" d="M67.1,1.4c10,0,18.1,8.1,18.1,18c0,10-8.1,18.1-18,18.1c-10,0-18.1-8.1-18.1-18c0,0,0,0,0,0
		C49.1,9.5,57.2,1.4,67.1,1.4z"/>
</g>
</svg>
